# xmcd
#
# Track frame offsets: 
#        150
#        19712
#        31562
#        47612
#        76862
#        91325
#        104067
#        119352
#        133570
#        152012
#        178265
#        195155
#
# Disc length: 2783 seconds
#
# Revision: 0
# Processed by: cddbd v1.4PL0 Copyright (c) Steve Scherf et al.
# Submitted via: ExactAudioCopy v0.95a3
#
DISCID=8a0add0c
DTITLE=Sandro Becker - Vou cuidar de mim
DYEAR=1900
DGENRE=Brega
TTITLE0=Vou cuidar de mim
TTITLE1=Chorar pra quê?
TTITLE2=Loiras e morenas
TTITLE3=Pout-pourri
TTITLE4=Brigas de casal
TTITLE5=Sertaneja
TTITLE6=Comida a kilo
TTITLE7=Não suporto a solidão
TTITLE8=Quando te vejo
TTITLE9=Pout-pourri
TTITLE10=Garotinha
TTITLE11=Bandido
EXTD=
EXTT0=
EXTT1=
EXTT2=
EXTT3=
EXTT4=
EXTT5=
EXTT6=
EXTT7=
EXTT8=
EXTT9=
EXTT10=
EXTT11=
PLAYORDER=
